<svg width="58" height="58" xmlns="http://www.w3.org/2000/svg" xmlns:xlink="http://www.w3.org/1999/xlink" xml:space="preserve" overflow="hidden"><g transform="translate(-189 -163)"><path d="M240.657 192.182 233.768 184.281C233.586 184.099 233.336 183.986 233.085 183.986L208.542 183.986C208.292 183.986 208.053 184.088 207.86 184.281L200.971 192.171C200.743 192.443 200.698 192.807 200.834 193.148 200.88 193.273 200.982 193.398 201.062 193.466L201.096 193.501 201.107 193.501 218.318 213.872 223.32 213.872 240.532 193.512 240.543 193.512 240.577 193.478C240.645 193.398 240.748 193.285 240.804 193.16 240.929 192.818 240.873 192.443 240.657 192.182Z" fill="#00E6E6"/><path d="M236.678 188.544 229.789 180.643C229.607 180.461 229.357 180.348 229.107 180.348L204.563 180.348C204.313 180.348 204.074 180.45 203.881 180.643L196.992 188.533C196.764 188.806 196.719 189.169 196.855 189.51 196.901 189.635 197.003 189.76 197.083 189.829L197.117 189.863 197.128 189.863 214.339 210.234 219.341 210.234 236.553 189.874 236.564 189.874 236.598 189.84C236.666 189.76 236.769 189.647 236.826 189.522 236.951 189.169 236.894 188.806 236.678 188.544ZM227.492 182.189 224.173 187.589 218.853 182.189 227.492 182.189ZM222.229 188.214 211.429 188.214 216.829 182.712 222.229 188.214ZM214.806 182.189 209.485 187.589 206.166 182.189 214.806 182.189ZM204.426 182.803 207.746 188.214 199.686 188.214 204.426 182.803ZM199.709 190.056 208.69 190.056 214.885 207.949 199.709 190.056ZM210.633 190.056 222.956 190.056 216.829 208.006 210.633 190.056ZM218.807 207.915 224.878 190.056 233.949 190.056 218.807 207.915ZM225.924 188.214 229.243 182.803 233.972 188.214 225.924 188.214Z" fill="#001957"/><path d="M215.908 171.981 217.773 171.981 217.773 176.301 215.908 176.301Z" fill="#001957"/><path d="M222.979 174.05 220.08 177.005 221.376 178.313 224.264 175.368Z" fill="#001957"/><path d="M210.372 174.05 209.076 175.368 211.975 178.301 213.271 177.005Z" fill="#001957"/></g></svg>