<svg width="57" height="56" xmlns="http://www.w3.org/2000/svg" xmlns:xlink="http://www.w3.org/1999/xlink" xml:space="preserve" overflow="hidden"><g transform="translate(-638 -283)"><path d="M44.5565 30.3117C44.5565 38.4331 37.9727 45.0169 29.8513 45.0169 21.7299 45.0169 15.1461 38.4331 15.1461 30.3117 15.1461 22.1903 21.7299 15.6066 29.8513 15.6066 37.9727 15.6066 44.5565 22.1903 44.5565 30.3117Z" fill="#00E6E6" transform="matrix(1.01786 0 0 1 638 283)"/><path d="M27.5728 33.69C25.2167 33.6937 23.0568 32.378 21.9792 30.2827L27.5719 30.2827 27.5719 28.4718 21.3827 28.4718C21.271 27.8 21.271 27.1143 21.3827 26.4425L27.5719 26.4425 27.5719 24.6316 21.9792 24.6316C23.5759 21.5413 27.3755 20.3304 30.4659 21.9272 31.0352 22.2212 31.5562 22.6005 32.011 23.0518L33.2878 21.7676C30.1179 18.6112 24.9895 18.6222 21.8332 21.7921 21.0295 22.5992 20.4051 23.5668 20.0007 24.6316L16.8829 24.6316 16.8829 26.4425 19.5537 26.4425C19.4661 27.1162 19.4661 27.7982 19.5537 28.4718L16.8829 28.4718 16.8829 30.2827 20.0007 30.2827C21.5963 34.4663 26.2812 36.5642 30.4647 34.9686 31.5227 34.5652 32.4844 33.9445 33.2879 33.1467L32.0109 31.8625C30.8335 33.0377 29.2364 33.6955 27.5728 33.69Z" fill="#001957" transform="matrix(1.01786 0 0 1 638 283)"/><path d="M27.5767 12.0104C18.9817 12.0104 12.0141 18.978 12.0141 27.573 12.0141 36.1679 18.9817 43.1355 27.5767 43.1355 36.1716 43.1355 43.1392 36.1679 43.1392 27.573 43.1392 18.978 36.1716 12.0104 27.5767 12.0104ZM37.3005 37.2968C31.9301 42.6672 23.2231 42.6672 17.8527 37.2968 12.4825 31.9264 12.4825 23.2194 17.8529 17.849 23.2231 12.4787 31.9302 12.4787 37.3005 17.8491 39.8795 20.428 41.3283 23.9258 41.3283 27.573 41.3382 31.2221 39.8879 34.7235 37.3005 37.2968Z" fill="#001957" transform="matrix(1.01786 0 0 1 638 283)"/></g></svg>