<svg width="57" height="56" xmlns="http://www.w3.org/2000/svg" xmlns:xlink="http://www.w3.org/1999/xlink" xml:space="preserve" overflow="hidden"><g transform="translate(-646 -276)"><path d="M38.5809 22.962C38.5809 20.185 36.6931 18.1654 34.1027 18.1654 33.2575 18.1654 32.2697 18.5057 31.3477 19.1203 30.755 18.7252 29.7013 18.1654 28.5927 18.1654 25.9914 18.1654 24.1035 20.185 24.1035 22.962 24.1035 24.8169 25.234 26.8146 27.4731 28.8891 28.45 29.7891 29.4928 30.6123 30.6123 31.3258 31.0733 31.6111 31.655 31.6111 32.1051 31.3148L32.116 31.3038C33.2136 30.5794 34.2564 29.7672 35.2113 28.8781 37.4504 26.8036 38.5809 24.8169 38.5809 22.962" fill="#00E6E6" transform="matrix(1.01786 0 0 1 646 276)"/><path d="M26.7158 13.2481 26.617 13.2701 26.7158 13.2481Z" fill="#20284E" transform="matrix(1.01786 0 0 1 646 276)"/><path d="M26.9134 13.2042 26.7817 13.2262 26.9134 13.2042Z" fill="#20284E" transform="matrix(1.01786 0 0 1 646 276)"/><path d="M27.1 13.1603C27.0561 13.1713 27.0012 13.1823 26.9463 13.1933L27.1 13.1603Z" fill="#20284E" transform="matrix(1.01786 0 0 1 646 276)"/><path d="M27.2975 13.1054 27.2975 13.1054C27.2317 13.1274 27.1658 13.1384 27.1 13.1603 27.1768 13.1384 27.2427 13.1274 27.2975 13.1054Z" fill="#20284E" transform="matrix(1.01786 0 0 1 646 276)"/><path d="M26.4524 13.2811 26.5073 13.2701 26.4524 13.2811Z" fill="#20284E" transform="matrix(1.01786 0 0 1 646 276)"/><path d="M31.0843 15.9922C30.4916 15.9922 29.8111 16.1678 29.1415 16.4861L29.1415 12.7432C29.1415 12.6774 29.1305 12.6225 29.1086 12.5566 28.9659 11.3273 28.2854 9.70286 25.8048 8.86868 22.973 7.92474 20.1411 9.42846 20.0204 9.49432L19.3069 9.87848 19.6033 10.6358C19.6472 10.7456 20.657 13.2372 23.1376 14.5653 23.9059 14.9604 24.7511 15.169 25.6182 15.169L25.695 15.169C26.2329 15.169 26.7817 15.1031 27.3085 14.9824L27.3085 16.3763C26.7707 16.1348 26.178 15.9922 25.5853 15.9812 22.9949 15.9812 21.107 18.0008 21.107 20.7668 21.107 22.6217 22.2376 24.6084 24.4657 26.6829 25.4316 27.5829 26.4853 28.3951 27.5939 29.1196 27.8134 29.2623 28.0768 29.3281 28.3403 29.3391 28.6037 29.3391 28.8671 29.2623 29.0866 29.1196L29.0976 29.1086C30.1952 28.3951 31.227 27.5829 32.1929 26.6938 34.41 24.6194 35.5406 22.6217 35.5406 20.7777 35.5515 18.0118 33.6746 15.9922 31.0843 15.9922ZM23.9169 12.9408C22.6986 12.2932 22.04 11.2834 21.6558 10.6468 22.4681 10.3505 23.9279 9.94434 25.2889 10.5151 26.7378 11.1298 27.3085 11.92 27.3853 12.6664L27.3853 13.0725 27.2975 13.0945 27.2975 13.0945C27.2427 13.1164 27.1658 13.1274 27.1 13.1494L27.1 13.1494 26.9463 13.1823 26.9134 13.1933 26.7817 13.2152 26.7158 13.2262 26.617 13.2481 26.5073 13.2701 26.4524 13.2811C25.706 13.3908 24.7511 13.3908 23.9169 12.9408ZM31.2928 24.9596C30.3818 25.8487 29.394 26.6499 28.3403 27.3744 27.2866 26.6609 26.2987 25.8487 25.3767 24.9596 23.8181 23.423 22.9949 21.9851 22.9949 20.7887 22.9949 19.0764 24.0596 17.891 25.5743 17.891 26.3207 17.891 27.4073 18.5057 27.9671 19.0874L28.3293 19.4496 28.6805 19.0874C29.2403 18.5167 30.316 17.902 31.0733 17.902 32.588 17.902 33.6527 19.0984 33.6527 20.7997 33.6637 21.9741 32.8514 23.423 31.2928 24.9596Z" fill="#001957" transform="matrix(1.01786 0 0 1 646 276)"/><path d="M26.9463 13.1933 26.9134 13.2042 26.9463 13.1933Z" fill="#20284E" transform="matrix(1.01786 0 0 1 646 276)"/><path d="M26.617 13.2591 26.5073 13.2811 26.617 13.2591Z" fill="#20284E" transform="matrix(1.01786 0 0 1 646 276)"/><path d="M26.7817 13.2262 26.7158 13.2372 26.7817 13.2262Z" fill="#20284E" transform="matrix(1.01786 0 0 1 646 276)"/><path d="M39.6456 34.8271C39.1078 33.6637 37.8346 33.038 36.5833 33.3344L31.8307 34.443C31.5563 33.51 30.7989 32.7966 29.855 32.577 29.8001 32.5661 23.2364 31.0514 22.7095 30.9196 20.5802 30.3818 17.902 31.4355 16.7715 32.3136L17.891 33.7515C18.6484 33.1588 20.7668 32.3026 22.2815 32.6868 22.8522 32.8295 29.4159 34.3442 29.4708 34.3552 29.7342 34.41 29.9537 34.5966 30.0635 34.8381L27.8354 35.365C27.7805 35.3759 27.7146 35.3869 27.6597 35.3869L23.5108 35.4198 23.5218 37.2419 27.6707 37.2089C27.8573 37.2089 28.0549 37.187 28.2415 37.1431L29.7781 36.7699 29.7781 36.7809 37.0004 35.0906C37.4724 34.9918 37.9334 35.3101 38.0321 35.782 38.109 36.1662 37.9224 36.5614 37.5602 36.737L28.9769 40.7103C27.8683 41.2262 26.639 41.4128 25.4316 41.2372L17.5508 40.1066 17.2873 41.9067 25.1791 43.0372C26.7378 43.2568 28.3183 43.0263 29.7452 42.3567L38.3395 38.4053C39.6895 37.7797 40.2713 36.1772 39.6456 34.8271Z" fill="#001957" transform="matrix(1.01786 0 0 1 646 276)"/></g></svg>