<svg width="57" height="56" xmlns="http://www.w3.org/2000/svg" xmlns:xlink="http://www.w3.org/1999/xlink" xml:space="preserve" overflow="hidden"><g transform="translate(-187 -263)"><path d="M49.2607 20.218C48.5033 19.4826 47.4496 19.0655 46.3081 19.0655L34.8601 19.0655 34.8601 20.4814 34.871 20.8546 34.871 23.9937C31.666 23.9169 28.1537 23.9059 26.6499 23.9059 26.617 23.7193 26.5731 23.5218 26.5402 23.3352 26.2877 21.9412 26.0572 20.8326 25.5523 20.196 25.4206 20.0204 25.245 19.7679 25.0694 19.5045 24.312 18.3959 23.3681 17.0239 22.2046 16.7056 21.096 16.3983 16.7605 16.3105 15.6409 16.8702 14.7628 17.3093 13.3799 19.5923 12.5566 21.0521L8.71501 23.5547 8.75892 24.0925C8.80282 24.6194 9.26382 29.2293 12.0188 29.2293 13.9177 29.2293 15.1141 28.8013 15.8165 28.4061 17.0788 29.7672 19.0106 31.2379 19.274 31.677 19.4606 32.5441 18.9996 38.0321 18.8789 43.125 18.1544 43.5312 16.9032 44.2446 16.6617 44.4093 16.0361 44.8263 15.9922 45.7483 16.058 46.4618L16.1458 47.285C16.1458 47.285 21.2607 47.3069 22.1168 47.3069 22.973 47.3069 23.3132 46.7581 23.412 46.4069 23.5108 46.0557 23.7413 45.9679 23.9279 40.7213 23.9828 39.1956 24.0267 37.6699 24.0486 36.7479L33.8503 36.8358C34.5198 37.4504 36.1004 38.6029 36.3748 39.0968 36.5614 39.9639 35.8479 41.0067 35.793 43.125 35.0686 43.5312 33.9271 44.2446 33.6856 44.4093 33.06 44.8263 33.0161 45.7483 33.0819 46.4618L33.1697 47.285C33.1697 47.285 38.2846 47.3069 39.1407 47.3069 39.9969 47.3069 40.2054 46.8459 40.4359 46.4069 40.6115 46.0776 40.7981 44.991 41.6543 39.4371 41.7091 39.0749 41.764 38.1639 42.0055 37.4394L42.6641 37.9114 43.125 37.637C43.5751 37.3626 45.1776 36.3309 46.7801 34.4869 48.4485 32.5551 50.4461 29.3281 50.4461 24.9047L50.4461 23.0717C50.4241 21.9741 50.0071 20.9643 49.2607 20.218Z" fill="#00E6E6" transform="matrix(1.01786 0 0 1 187 263)"/><path d="M13.314 18.6154 11.7334 18.6154 11.7334 19.5704C11.7334 20.0972 12.1615 20.5253 12.6884 20.5253L13.314 20.5253C13.8408 20.5253 14.2689 20.0972 14.2689 19.5704 14.2689 19.0435 13.8299 18.6154 13.314 18.6154Z" fill="#001957" transform="matrix(1.01786 0 0 1 187 263)"/><path d="M42.3238 23.4449C42.4555 23.3022 42.4884 23.1047 42.4226 22.9181 42.3567 22.7425 42.2031 22.6107 42.0165 22.5888L40.8091 22.4022C40.7432 22.3912 40.6884 22.3473 40.6664 22.3034L40.1286 21.1399C40.0408 20.9643 39.8652 20.8436 39.6676 20.8436 39.6676 20.8436 39.6676 20.8436 39.6676 20.8436 39.47 20.8436 39.2944 20.9534 39.2066 21.1399L38.6797 22.2924C38.6578 22.3473 38.6029 22.3912 38.548 22.4022L37.3407 22.5888C37.1541 22.6107 36.9894 22.7425 36.9345 22.929 36.8687 23.1156 36.9236 23.3132 37.0553 23.4559L37.9334 24.323C37.9773 24.3669 37.9882 24.4218 37.9882 24.4767L37.7907 25.7828C37.7577 25.9804 37.8456 26.167 38.0102 26.2768 38.1748 26.3865 38.3724 26.3975 38.548 26.2987L39.5798 25.695C39.6347 25.6621 39.7005 25.6621 39.7554 25.695L40.864 26.3207C40.9408 26.3646 41.0286 26.3865 41.1164 26.3865 41.2152 26.3865 41.314 26.3536 41.4018 26.2987 41.5664 26.1889 41.6433 25.9914 41.6104 25.7938L41.3908 24.4877C41.3799 24.4328 41.4018 24.3779 41.4457 24.334L42.3238 23.4449Z" fill="#001957" transform="matrix(1.01786 0 0 1 187 263)"/><path d="M46.1874 16.8154C45.43 16.08 44.3763 15.6629 43.2348 15.6629L31.7868 15.6629 31.7868 17.0788 31.7977 17.452 31.7977 20.5911C28.5927 20.5143 25.0804 20.5033 23.5766 20.5033 23.5437 20.3167 23.4998 20.1192 23.4669 19.9326 23.2144 18.5386 22.9839 17.43 22.479 16.7934 22.3473 16.6178 22.1717 16.3653 21.9961 16.1019 21.2387 14.9933 20.2948 13.6213 19.1313 13.303 18.0227 12.9957 13.6872 12.9079 12.5676 13.4677 11.6895 13.9067 10.3065 16.1897 9.48334 17.6495L5.64171 20.1521 5.68561 20.6899C5.72952 21.2168 6.19051 25.8267 8.94551 25.8267 10.8444 25.8267 12.0408 25.3987 12.7432 25.0035 14.0055 26.3646 15.2787 27.8354 15.5421 28.2744 15.7287 29.1415 15.7068 34.6296 15.586 39.7225 14.8616 40.1286 13.8299 40.842 13.5884 41.0067 12.9628 41.4238 12.9189 42.3457 12.9847 43.0592L13.0725 43.8824C13.0725 43.8824 18.1874 43.9044 19.0435 43.9044 19.8996 43.9044 20.2399 43.3555 20.3387 43.0043 20.4375 42.6531 20.668 42.5653 20.8546 37.3187 20.9094 35.793 20.9534 34.2673 20.9753 33.3454L30.777 33.4332C31.4465 34.0478 32.3685 34.9808 32.6429 35.4747 32.8295 36.3418 32.6648 37.6041 32.61 39.7225 31.8855 40.1286 30.8538 40.842 30.6123 41.0067 29.9867 41.4238 29.9428 42.3457 30.0086 43.0592L30.0964 43.8824C30.0964 43.8824 35.2113 43.9044 36.0674 43.9044 36.9236 43.9044 37.1321 43.4434 37.3626 43.0043 37.5382 42.675 37.7248 41.5884 38.5809 36.0345 38.6358 35.6723 38.6907 34.7613 38.9322 34.0368L39.5908 34.5088 40.0517 34.2344C40.5018 33.96 42.1043 32.9283 43.7068 31.0843 45.3751 29.1525 47.3728 25.9255 47.3728 21.5022L47.3728 19.6691C47.3508 18.5715 46.9338 17.5617 46.1874 16.8154ZM8.16621 21.8095C8.05645 21.9851 7.93571 22.1497 7.804 22.2815 7.69424 21.8973 7.60643 21.4802 7.54057 21.0851L7.95766 20.8107C8.14426 21.0082 8.39671 21.4143 8.16621 21.8095ZM36.7809 35.782 36.7809 35.782 36.7699 35.8918C36.276 39.9091 35.9357 40.9957 35.804 42.0165L35.4198 42.0165 32.0831 42.0604C32.61 41.753 33.4002 41.3689 33.9381 41.0615L34.3881 40.8091 34.3991 40.2932C34.3991 40.2713 34.4649 35.9357 34.4759 35.6503 34.4869 35.365 34.3552 34.9479 34.2234 34.6076 34.0917 34.2673 31.9185 32.0392 31.7209 31.8636L31.4684 31.6331 19.1972 31.5233 19.1752 32.4234C19.0984 36.3528 18.9228 40.875 18.7801 42.0055L18.3959 42.0055 15.0592 42.0494C15.586 41.7421 16.3763 41.3579 16.9142 41.0506L17.3642 40.7981 17.3751 40.2822C17.3751 40.2493 17.452 37.3516 17.4739 34.3991 17.5288 28.2085 17.3203 27.8134 17.1776 27.5171 16.7495 26.6609 14.3787 24.2023 13.6213 23.412L12.8091 22.5778 12.1725 23.2144C12.0627 23.3132 11.2066 24.0267 8.93454 24.0267 8.84673 24.0267 8.75892 23.9937 8.67111 23.9279 9.0443 23.6205 9.42846 23.2144 9.73579 22.7095 10.3944 21.579 9.98824 20.4924 9.49432 19.8118L10.8444 18.9338 10.9541 18.7362C11.7993 17.2105 12.9737 15.3995 13.3908 15.0921 14.0713 14.8287 17.7154 14.8067 18.6593 15.0592 19.1862 15.2019 20.0533 16.4641 20.5143 17.1337 20.7119 17.4191 20.9534 17.6605 21.0741 17.913 21.3156 18.4179 21.579 19.3838 21.6997 20.0423 21.7656 20.4265 21.8314 20.7668 21.8973 21.0302 21.9302 21.1399 22.018 21.6997 22.0839 22.0949 22.1058 22.4461 22.1058 22.7644 22.029 23.9169 21.9632 24.8279 21.6997 25.4645 21.2826 25.706 20.9424 25.9036 20.5472 25.8267 20.3716 25.7389 19.8118 25.4865 18.9118 24.3889 18.2532 23.1925 17.8142 22.3802 17.2764 20.0533 17.1007 19.2301L15.4324 19.5704C15.4982 19.8996 16.1129 22.8303 16.7495 24.0157 16.991 24.4437 18.2313 26.639 19.6472 27.2975 19.9545 27.4402 20.3606 27.539 20.7997 27.539 21.2387 27.539 21.6997 27.4402 22.1388 27.1768 22.7864 26.7926 23.5766 25.9475 23.7084 24.0376 23.7523 23.3681 23.7852 22.7864 23.7852 22.3144 26.0572 22.3144 29.1415 22.3473 31.8197 22.4022 32.0612 26.3536 33.8942 29.2842 35.4528 31.0843 36.2211 31.9624 36.7589 32.4453 37.3955 32.9502 36.8797 34.2673 36.7918 35.7052 36.7809 35.782ZM45.5617 21.5241C45.5617 24.6084 44.4861 27.4292 42.3567 29.8989 41.8189 30.5245 41.2811 31.0404 40.7981 31.4575 40.3042 31.8855 39.8761 32.2038 39.5798 32.4124 39.3054 32.2258 38.9212 31.9294 38.4712 31.5453 37.9663 31.1172 37.3955 30.5684 36.8248 29.9098 34.904 27.6927 33.8393 25.1901 33.6417 22.4461 33.6198 22.1388 33.6088 21.8205 33.6088 21.5022L33.6088 20.635 33.6088 17.463 43.2458 17.463C44.6398 17.463 45.5727 18.352 45.5727 19.6691L45.5727 21.5241Z" fill="#001957" transform="matrix(1.01786 0 0 1 187 263)"/></g></svg>