<svg width="57" height="57" xmlns="http://www.w3.org/2000/svg" xmlns:xlink="http://www.w3.org/1999/xlink" xml:space="preserve" overflow="hidden"><g transform="translate(-187 -159)"><path d="M232.129 189.853C232.129 198.119 225.427 204.821 217.161 204.821 208.894 204.821 202.193 198.119 202.193 189.853 202.193 181.587 208.894 174.885 217.161 174.885 225.427 174.885 232.129 181.587 232.129 189.853Z" fill="#00E6E6"/><path d="M214.3 202.95C205.538 202.95 198.41 195.822 198.41 187.06 198.41 178.299 205.538 171.171 214.3 171.171 223.061 171.171 230.189 178.299 230.189 187.06 230.189 195.822 223.061 202.95 214.3 202.95ZM214.3 173.014C206.555 173.014 200.253 179.315 200.253 187.06 200.253 194.805 206.555 201.106 214.3 201.106 222.045 201.106 228.346 194.805 228.346 187.06 228.346 179.315 222.045 173.014 214.3 173.014Z" fill="#001957"/><path d="M213.963 197.17C210.762 197.17 207.778 195.447 206.175 192.673L207.722 191.778C209.007 194.002 211.398 195.383 213.963 195.383 216.489 195.383 218.862 194.033 220.156 191.86L221.692 192.774C220.077 195.486 217.116 197.17 213.963 197.17Z" fill="#001957"/><path d="M210.391 185.38C209.404 185.38 208.601 184.577 208.601 183.59 208.601 182.603 209.404 181.8 210.391 181.8 211.378 181.8 212.182 182.603 212.182 183.59 212.182 184.577 211.378 185.38 210.391 185.38ZM210.394 183.589 210.394 183.59C210.394 183.589 210.394 183.589 210.394 183.589Z" fill="#001957"/><path d="M217.372 185.38C216.384 185.38 215.581 184.577 215.581 183.59 215.581 182.603 216.384 181.8 217.372 181.8 218.359 181.8 219.162 182.603 219.162 183.59 219.162 184.577 218.359 185.38 217.372 185.38ZM217.374 183.589 217.374 183.59C217.374 183.589 217.374 183.589 217.374 183.589Z" fill="#001957"/></g></svg>