<svg width="58" height="58" xmlns="http://www.w3.org/2000/svg" xmlns:xlink="http://www.w3.org/1999/xlink" xml:space="preserve" overflow="hidden"><g transform="translate(-342 -163)"><path d="M393.657 192.182 386.768 184.281C386.586 184.099 386.336 183.986 386.085 183.986L361.542 183.986C361.292 183.986 361.053 184.088 360.86 184.281L353.971 192.171C353.743 192.443 353.698 192.807 353.834 193.148 353.88 193.273 353.982 193.398 354.062 193.466L354.096 193.501 354.107 193.501 371.318 213.872 376.32 213.872 393.532 193.512 393.543 193.512 393.577 193.478C393.645 193.398 393.748 193.285 393.804 193.16 393.929 192.818 393.873 192.443 393.657 192.182Z" fill="#A7D54C"/><path d="M389.678 188.544 382.789 180.643C382.607 180.461 382.357 180.348 382.107 180.348L357.563 180.348C357.313 180.348 357.074 180.45 356.881 180.643L349.992 188.533C349.764 188.806 349.719 189.169 349.855 189.51 349.901 189.635 350.003 189.76 350.083 189.829L350.117 189.863 350.128 189.863 367.339 210.234 372.341 210.234 389.553 189.874 389.564 189.874 389.598 189.84C389.666 189.76 389.769 189.647 389.826 189.522 389.951 189.169 389.894 188.806 389.678 188.544ZM380.492 182.189 377.173 187.589 371.853 182.189 380.492 182.189ZM375.229 188.214 364.429 188.214 369.829 182.712 375.229 188.214ZM367.806 182.189 362.485 187.589 359.166 182.189 367.806 182.189ZM357.427 182.803 360.746 188.214 352.686 188.214 357.427 182.803ZM352.709 190.056 361.69 190.056 367.885 207.949 352.709 190.056ZM363.633 190.056 375.956 190.056 369.829 208.006 363.633 190.056ZM371.807 207.915 377.878 190.056 386.949 190.056 371.807 207.915ZM378.924 188.214 382.243 182.803 386.972 188.214 378.924 188.214Z" fill="#001957"/><path d="M368.908 171.981 370.773 171.981 370.773 176.301 368.908 176.301Z" fill="#001957"/><path d="M375.979 174.05 373.08 177.005 374.376 178.313 377.264 175.368Z" fill="#001957"/><path d="M363.372 174.05 362.076 175.368 364.975 178.301 366.271 177.005Z" fill="#001957"/></g></svg>