<svg width="56" height="56" xmlns="http://www.w3.org/2000/svg" xmlns:xlink="http://www.w3.org/1999/xlink" xml:space="preserve" overflow="hidden"><g transform="translate(-791 -283)"><path d="M835.563 313.316C835.563 321.439 828.978 328.024 820.855 328.024 812.732 328.024 806.147 321.439 806.147 313.316 806.147 305.193 812.732 298.608 820.855 298.608 828.978 298.608 835.563 305.193 835.563 313.316Z" fill="#A7D54C"/><path d="M818.572 316.697C816.212 316.697 814.061 315.379 812.974 313.294L818.572 313.294 818.572 311.483 812.381 311.483C812.272 310.813 812.272 310.122 812.381 309.452L818.572 309.452 818.572 307.641 812.974 307.641C814.566 304.546 818.374 303.339 821.459 304.941 822.029 305.238 822.545 305.611 823.006 306.061L824.279 304.777C821.107 301.615 815.982 301.626 812.82 304.799 812.019 305.611 811.394 306.577 810.987 307.641L807.87 307.641 807.87 309.452 810.537 309.452C810.45 310.122 810.45 310.813 810.537 311.483L807.87 311.483 807.87 313.294 810.987 313.294C812.579 317.476 817.266 319.572 821.448 317.981 822.501 317.575 823.467 316.96 824.269 316.159L822.995 314.875C821.832 316.038 820.24 316.697 818.572 316.697Z" fill="#001957"/><path d="M818.583 295.008C809.989 295.008 803.019 301.978 803.019 310.572 803.019 319.166 809.989 326.136 818.583 326.136 827.177 326.136 834.147 319.166 834.147 310.572 834.147 301.978 827.177 295.008 818.583 295.008L818.583 295.008ZM828.308 320.297C822.94 325.664 814.225 325.664 808.858 320.297 803.491 314.929 803.491 306.214 808.858 300.847 814.225 295.48 822.94 295.48 828.308 300.847 830.887 303.427 832.336 306.928 832.336 310.572 832.347 314.227 830.887 317.728 828.308 320.297L828.308 320.297Z" fill="#001957"/></g></svg>