<svg width="56" height="56" xmlns="http://www.w3.org/2000/svg" xmlns:xlink="http://www.w3.org/1999/xlink" xml:space="preserve" overflow="hidden"><g transform="translate(-796 -276)"><path d="M832.913 298.797C832.913 296.02 831.025 294.001 828.434 294.001 827.6 294.001 826.601 294.341 825.679 294.956 825.087 294.561 824.033 294.001 822.924 294.001 820.323 294.001 818.446 296.02 818.446 298.797 818.446 300.652 819.577 302.65 821.816 304.724 822.793 305.624 823.835 306.437 824.955 307.161 825.174 307.304 825.438 307.37 825.701 307.381 825.965 307.381 826.228 307.304 826.459 307.161L826.47 307.15C827.567 306.426 828.61 305.613 829.565 304.724 831.782 302.628 832.913 300.641 832.913 298.797" fill="#A7D54C"/><path d="M825.405 291.817C824.812 291.817 824.132 291.992 823.462 292.31L823.462 288.568C823.462 288.502 823.451 288.447 823.429 288.381 823.287 287.152 822.595 285.527 820.125 284.693 817.294 283.749 814.451 285.253 814.341 285.319L813.628 285.714 813.924 286.471C813.968 286.581 814.978 289.073 817.458 290.401 818.227 290.796 819.072 291.004 819.939 291.004L820.016 291.004C820.554 290.993 821.102 290.938 821.629 290.818L821.629 292.212C821.091 291.959 820.499 291.828 819.906 291.817 817.316 291.817 815.428 293.836 815.428 296.602 815.428 298.457 816.558 300.444 818.786 302.518 819.752 303.418 820.806 304.23 821.915 304.955 822.376 305.24 822.957 305.24 823.407 304.944L823.418 304.933C824.516 304.209 825.548 303.407 826.514 302.507 828.731 300.433 829.861 298.435 829.861 296.591 829.872 293.836 827.995 291.817 825.405 291.817ZM818.249 288.776C817.03 288.129 816.372 287.119 815.987 286.482 816.8 286.186 818.26 285.78 819.621 286.35 821.069 286.965 821.64 287.755 821.717 288.502L821.717 288.908 821.629 288.93 821.629 288.93C821.563 288.952 821.497 288.963 821.432 288.985L821.432 288.985 821.278 289.018 821.245 289.029C821.201 289.04 821.157 289.051 821.113 289.051L821.047 289.062 820.949 289.083 820.839 289.105 820.784 289.116C820.027 289.215 819.083 289.215 818.249 288.776ZM825.624 300.784C824.713 301.673 823.726 302.474 822.672 303.199 821.618 302.485 820.63 301.673 819.708 300.784 818.15 299.247 817.327 297.809 817.327 296.613 817.327 294.901 818.391 293.715 819.906 293.715 820.652 293.715 821.739 294.33 822.31 294.912L822.661 295.274 823.012 294.912C823.572 294.341 824.648 293.726 825.405 293.726 826.92 293.726 827.984 294.923 827.984 296.624 827.995 297.799 827.172 299.247 825.624 300.784Z" fill="#001957"/><path d="M821.267 289.018 821.234 289.029 821.267 289.018Z" fill="#1F274B"/><path d="M820.938 289.083 820.828 289.105 820.938 289.083Z" fill="#1F274B"/><path d="M821.113 289.051 821.047 289.062 821.113 289.051Z" fill="#1F274B"/><path d="M833.977 310.652C833.439 309.488 832.166 308.862 830.915 309.159L826.162 310.267C825.888 309.334 825.131 308.621 824.187 308.401 824.132 308.39 817.568 306.876 817.041 306.744 814.912 306.206 812.234 307.26 811.103 308.138L812.223 309.576C812.98 308.983 815.098 308.127 816.613 308.511 817.184 308.654 823.748 310.169 823.802 310.18 824.066 310.245 824.285 310.421 824.395 310.673L822.167 311.2C822.112 311.211 822.046 311.222 821.991 311.222L817.842 311.255 817.853 313.077 822.002 313.044C822.189 313.044 822.387 313.022 822.573 312.978L824.121 312.605 824.121 312.616 831.343 310.926C831.804 310.805 832.287 311.08 832.408 311.552 832.517 311.969 832.309 312.408 831.903 312.572L823.298 316.535C822.189 317.051 820.96 317.237 819.752 317.062L811.871 315.931 811.608 317.731 819.489 318.851C821.047 319.07 822.628 318.84 824.055 318.17L832.66 314.219C834.01 313.604 834.603 312.002 833.977 310.652Z" fill="#001957"/></g></svg>