<svg width="57" height="57" xmlns="http://www.w3.org/2000/svg" xmlns:xlink="http://www.w3.org/1999/xlink" xml:space="preserve" overflow="hidden"><g transform="translate(-337 -159)"><path d="M382.129 189.853C382.129 198.119 375.427 204.821 367.161 204.821 358.894 204.821 352.193 198.119 352.193 189.853 352.193 181.587 358.894 174.885 367.161 174.885 375.427 174.885 382.129 181.587 382.129 189.853Z" fill="#A7D54C"/><path d="M364.3 202.95C355.538 202.95 348.41 195.822 348.41 187.06 348.41 178.299 355.538 171.171 364.3 171.171 373.061 171.171 380.189 178.299 380.189 187.06 380.189 195.822 373.061 202.95 364.3 202.95ZM364.3 173.014C356.555 173.014 350.253 179.315 350.253 187.06 350.253 194.805 356.555 201.106 364.3 201.106 372.045 201.106 378.346 194.805 378.346 187.06 378.346 179.315 372.045 173.014 364.3 173.014Z" fill="#001957"/><path d="M363.963 197.17C360.762 197.17 357.778 195.447 356.175 192.673L357.722 191.778C359.007 194.002 361.398 195.383 363.963 195.383 366.489 195.383 368.862 194.033 370.156 191.86L371.692 192.774C370.077 195.486 367.116 197.17 363.963 197.17Z" fill="#001957"/><path d="M360.391 185.38C359.404 185.38 358.601 184.577 358.601 183.59 358.601 182.603 359.404 181.8 360.391 181.8 361.378 181.8 362.182 182.603 362.182 183.59 362.182 184.577 361.378 185.38 360.391 185.38ZM360.394 183.589 360.394 183.59C360.394 183.589 360.394 183.589 360.394 183.589Z" fill="#001957"/><path d="M367.372 185.38C366.384 185.38 365.581 184.577 365.581 183.59 365.581 182.603 366.384 181.8 367.372 181.8 368.359 181.8 369.162 182.603 369.162 183.59 369.162 184.577 368.359 185.38 367.372 185.38ZM367.374 183.589 367.374 183.59C367.374 183.589 367.374 183.589 367.374 183.589Z" fill="#001957"/></g></svg>